<?xml version="1.0" encoding="utf-8"?>
<!-- Generator: Adobe Illustrator 23.0.0, SVG Export Plug-In . SVG Version: 6.00 Build 0)  -->
<svg version="1.1" id="Capa_1" xmlns="http://www.w3.org/2000/svg" xmlns:xlink="http://www.w3.org/1999/xlink" x="0px" y="0px"
	 viewBox="0 0 64 64" style="enable-background:new 0 0 64 64;" xml:space="preserve">
<style type="text/css">
	.st0{fill:none;stroke:#FFFFFF;stroke-width:2;stroke-linecap:round;stroke-linejoin:round;stroke-miterlimit:10;}
</style>
<title>Add User</title>
<desc>A line styled icon from Orion Icon Library.</desc>
<path class="st0" d="M35.9,41c-3.3-1-3.9-2.9-3.9-4v-2c2-1.9,3.4-4.3,4-7c2.5,0,4-3,4-6c0-0.8,0-4-2-4C43,3.5,28.4-2,18,5
	c-4.4,0-5.6,6.6-4,13c-2,0-2,3.2-2,4c0,3,1.5,6,4,6c0.6,2.7,2,5.1,4,7v2c0,1.6-0.5,3.6-8.6,5.2S2,51,2,51h32.3"/>
<circle class="st0" cx="48" cy="48" r="14"/>
<path class="st0" d="M42,48h12 M48,54V42"/>
</svg>
